<?xml version="1.0" encoding="utf-8"?>
<!-- Generator: Adobe Illustrator 19.1.0, SVG Export Plug-In . SVG Version: 6.00 Build 0)  -->
<svg version="1.1" id="Layer_1" xmlns="http://www.w3.org/2000/svg" xmlns:xlink="http://www.w3.org/1999/xlink" x="0px" y="0px"
	 viewBox="0 0 601.1 596.1" style="enable-background:new 0 0 601.1 596.1;" xml:space="preserve">
<style type="text/css">
	.st0{fill:#D5635C;}
	.st1{fill:#CB3D33;}
	.st2{fill:#6C7FBF;}
	.st3{fill:#4C64AF;}
	.st4{fill:#60AD50;}
	.st5{fill:#3A9946;}
	.st6{fill:#AA7AB5;}
	.st7{fill:#935AA4;}
	.st8{fill:#4C4C4D;}
</style>
<g>
	<g>
		<path id="XMLID_106_" class="st0" d="M424.5,223.6c28.3,0,51.3-23,51.3-51.3c0-28.3-23-51.3-51.3-51.3c-28.4,0-51.3,23-51.3,51.3
			C373.1,200.6,396.1,223.6,424.5,223.6z"/>
		<path id="XMLID_105_" class="st1" d="M424.5,223.6v4c30.5,0,55.3-24.8,55.3-55.3c0-30.5-24.8-55.3-55.3-55.3
			c-30.5,0-55.3,24.7-55.3,55.3c0,30.5,24.8,55.3,55.3,55.3V223.6v-3.9c-13.1,0-25-5.3-33.5-13.9c-8.6-8.5-13.9-20.4-13.9-33.5
			c0-13.1,5.3-24.9,13.9-33.5c8.5-8.6,20.4-13.9,33.5-13.9c13.1,0,24.9,5.3,33.5,13.9c8.5,8.6,13.8,20.4,13.8,33.5
			c0,13.1-5.3,25-13.8,33.5c-8.6,8.6-20.4,13.9-33.5,13.9V223.6z"/>
	</g>
	<g>
		<path id="XMLID_104_" class="st0" d="M300.3,592.5c25.4,0,46-20.6,46-46c0-25.4-20.6-46-46-46c-25.5,0-46.1,20.6-46.1,46
			C254.3,571.9,274.9,592.5,300.3,592.5z"/>
		<path id="XMLID_103_" class="st1" d="M300.3,592.5v3.6c27.4,0,49.6-22.2,49.6-49.6c0-27.4-22.2-49.6-49.6-49.6
			c-27.4,0-49.6,22.2-49.6,49.6c0,27.4,22.2,49.6,49.6,49.6V592.5V589c-11.8,0-22.4-4.8-30.1-12.5c-7.7-7.7-12.5-18.3-12.5-30.1
			c0-11.8,4.7-22.4,12.5-30.1c7.7-7.7,18.3-12.4,30.1-12.4c11.7,0,22.3,4.7,30.1,12.4c7.7,7.7,12.4,18.3,12.4,30.1
			c0,11.8-4.7,22.4-12.4,30.1c-7.7,7.7-18.3,12.5-30.1,12.5V592.5z"/>
	</g>
	<g>
		<path id="XMLID_102_" class="st2" d="M551.5,344c25.4,0,46-20.6,46-46c0-25.4-20.6-46-46-46c-25.5,0-46.1,20.6-46.1,46
			C505.5,323.4,526.1,344,551.5,344z"/>
		<path id="XMLID_101_" class="st3" d="M551.5,344v3.6c27.4,0,49.6-22.2,49.6-49.6c0-27.4-22.2-49.6-49.6-49.6
			c-27.4,0-49.6,22.2-49.6,49.6c0,27.4,22.2,49.6,49.6,49.6V344v-3.5c-11.8,0-22.4-4.8-30.1-12.5c-7.7-7.7-12.5-18.3-12.5-30.1
			c0-11.8,4.7-22.4,12.5-30.1c7.7-7.7,18.3-12.4,30.1-12.4c11.7,0,22.3,4.7,30.1,12.4c7.7,7.7,12.4,18.3,12.4,30.1
			c0,11.8-4.7,22.4-12.4,30.1c-7.7,7.7-18.3,12.5-30.1,12.5V344z"/>
	</g>
	<g>
		<path id="XMLID_100_" class="st2" d="M175.1,223.6c28.3,0,51.3-23,51.3-51.3c0-28.3-23-51.3-51.3-51.3c-28.4,0-51.3,23-51.3,51.3
			C123.8,200.6,146.7,223.6,175.1,223.6z"/>
		<path id="XMLID_99_" class="st3" d="M175.1,223.6v4c30.5,0,55.3-24.8,55.3-55.3c0-30.5-24.8-55.3-55.3-55.3
			c-30.5,0-55.3,24.7-55.3,55.3c0,30.5,24.8,55.3,55.3,55.3V223.6v-3.9c-13.1,0-25-5.3-33.5-13.9c-8.6-8.5-13.9-20.4-13.9-33.5
			c0-13.1,5.3-24.9,13.9-33.5c8.5-8.6,20.4-13.9,33.5-13.9c13.1,0,24.9,5.3,33.5,13.9c8.5,8.6,13.8,20.4,13.8,33.5
			c0,13.1-5.3,25-13.8,33.5c-8.6,8.6-20.4,13.9-33.5,13.9V223.6z"/>
	</g>
	<g>
		<path id="XMLID_98_" class="st4" d="M300.3,95.6c25.4,0,46-20.6,46-46c0-25.4-20.6-46-46-46c-25.5,0-46.1,20.6-46.1,46
			C254.3,75,274.9,95.6,300.3,95.6z"/>
		<path id="XMLID_97_" class="st5" d="M300.3,95.6v3.6c27.4,0,49.6-22.2,49.6-49.6c0-27.4-22.2-49.6-49.6-49.6
			c-27.4,0-49.6,22.2-49.6,49.6c0,27.4,22.2,49.6,49.6,49.6V95.6v-3.5c-11.8,0-22.4-4.8-30.1-12.5c-7.7-7.7-12.5-18.3-12.5-30.1
			c0-11.8,4.7-22.4,12.5-30.1c7.7-7.7,18.3-12.4,30.1-12.4c11.7,0,22.3,4.7,30.1,12.4c7.7,7.7,12.4,18.3,12.4,30.1
			c0,11.8-4.7,22.4-12.4,30.1c-7.7,7.7-18.3,12.5-30.1,12.5V95.6z"/>
	</g>
	<g>
		<path id="XMLID_96_" class="st4" d="M173.1,472.9c28.3,0,51.3-23,51.3-51.3c0-28.3-23-51.3-51.3-51.3c-28.4,0-51.3,23-51.3,51.3
			C121.8,449.9,144.7,472.9,173.1,472.9z"/>
		<path id="XMLID_95_" class="st5" d="M173.1,472.9v4c30.5,0,55.3-24.8,55.3-55.3c0-30.5-24.8-55.3-55.3-55.3
			c-30.5,0-55.3,24.7-55.3,55.3c0,30.5,24.8,55.3,55.3,55.3V472.9V469c-13.1,0-25-5.3-33.5-13.9c-8.6-8.5-13.9-20.4-13.9-33.5
			c0-13.1,5.3-24.9,13.9-33.5c8.5-8.6,20.4-13.9,33.5-13.9c13.1,0,24.9,5.3,33.5,13.9c8.5,8.6,13.8,20.4,13.8,33.5
			c0,13.1-5.3,25-13.8,33.5c-8.6,8.6-20.4,13.9-33.5,13.9V472.9z"/>
	</g>
	<g>
		<path id="XMLID_94_" class="st6" d="M49.6,343.1c25.4,0,46-20.6,46-46c0-25.4-20.7-46-46-46c-25.4,0-46.1,20.6-46.1,46
			C3.6,322.5,24.2,343.1,49.6,343.1z"/>
		<path id="XMLID_93_" class="st7" d="M49.6,343.1v3.6c27.4,0,49.6-22.2,49.6-49.6c0-27.4-22.2-49.6-49.6-49.6
			C22.2,247.4,0,269.6,0,297c0,27.4,22.2,49.6,49.6,49.6V343.1v-3.5c-11.8,0-22.3-4.8-30.1-12.5c-7.7-7.7-12.5-18.3-12.5-30.1
			c0-11.8,4.7-22.4,12.5-30.1c7.7-7.7,18.3-12.4,30.1-12.4c11.7,0,22.4,4.7,30.1,12.4c7.7,7.7,12.4,18.3,12.5,30.1
			c0,11.8-4.8,22.4-12.5,30.1c-7.7,7.7-18.3,12.5-30.1,12.5V343.1z"/>
	</g>
	<g>
		<path id="XMLID_92_" class="st6" d="M425.5,472.9c28.3,0,51.3-23,51.3-51.3c0-28.3-23-51.3-51.3-51.3c-28.3,0-51.3,23-51.3,51.3
			C374.1,449.9,397.1,472.9,425.5,472.9z"/>
		<path id="XMLID_91_" class="st7" d="M425.5,472.9v4c30.5,0,55.3-24.8,55.3-55.3c0-30.5-24.8-55.3-55.3-55.3
			c-30.6,0-55.3,24.7-55.3,55.3c0,30.5,24.7,55.3,55.3,55.3V472.9V469c-13.1,0-24.9-5.3-33.5-13.9c-8.6-8.5-13.9-20.4-13.9-33.5
			c0-13.1,5.3-24.9,13.9-33.5c8.6-8.6,20.4-13.9,33.5-13.9c13.1,0,24.9,5.3,33.5,13.9c8.5,8.6,13.9,20.4,13.9,33.5
			c0,13.1-5.4,25-13.9,33.5c-8.6,8.6-20.4,13.9-33.5,13.9V472.9z"/>
	</g>
	<g>
		<path class="st8" d="M178.8,586.1c30.2,9.8,61.4-15.9,57.7-47.5c2.8-32.2,30.7-57.7,63-58.2c33.2-0.6,62,26.8,64.2,59.6
			c-3,28.5,23,53.2,51.3,48.4c28.8-4.9,45.2-36.3,32.8-62.8c-6.5-13.9-20-23.1-35.1-25c-9.5-1.2-18.2-1-27.3-4.5
			c-7-2.7-13.4-6.6-19-11.6c-10.5-9.3-17.9-22.1-20.5-35.9c-1.3-6.6-0.1-13.2-1.5-19.7c-1.3-6.6-4.2-12.9-8.3-18.3
			c-19.9-26.2-62.1-21.5-75.6,8.6c-1.6,4-4.3,14.5-4.3,21.5c-1.4,18.1-10.9,35.3-25.4,46.2c-7.8,5.8-16.7,9.6-26.3,11.3
			c-10.1,1.8-20.1,0.8-29.7,5C138.1,519.2,140.8,573.8,178.8,586.1C197,592,160.6,580.2,178.8,586.1z"/>
	</g>
	<g>
		<path class="st8" d="M13.8,419.2c-9.5-30.3,16.4-61.3,47.9-57.3c32.2-2.6,57.9-30.2,58.7-62.5c0.8-33.2-26.4-62.2-59.1-64.7
			c-28.5,2.8-53.1-23.4-48-51.6c5.1-28.8,36.7-44.9,63.1-32.3c13.8,6.6,23,20.2,24.7,35.3c1.1,9.5,0.9,18.3,4.3,27.4
			c2.6,7,6.5,13.5,11.4,19.1c9.2,10.6,21.9,18.1,35.7,20.8c6.6,1.3,13.2,0.2,19.7,1.6c6.6,1.4,12.9,4.3,18.2,8.4
			c26,20.1,21,62.2-9.2,75.6c-4,1.6-14.5,4.2-21.6,4.1c-18.1,1.2-35.3,10.6-46.4,25.1c-5.9,7.7-9.7,16.6-11.5,26.2
			c-1.9,10.1-1,20.1-5.2,29.7C80.4,460.4,25.8,457.3,13.8,419.2C8.1,401,19.6,437.4,13.8,419.2z"/>
	</g>
	<g>
		<path class="st8" d="M587.2,176.7c9.5,30.3-16.4,61.3-47.9,57.3c-32.2,2.6-57.9,30.2-58.7,62.5c-0.8,33.2,26.4,62.2,59.1,64.7
			c28.5-2.8,53.1,23.4,48,51.6c-5.1,28.8-36.7,44.9-63.1,32.3c-13.8-6.6-23-20.2-24.7-35.3c-1.1-9.5-0.9-18.3-4.3-27.4
			c-2.6-7-6.5-13.5-11.4-19.1c-9.2-10.6-21.9-18.1-35.7-20.8c-6.6-1.3-13.2-0.2-19.7-1.6c-6.6-1.4-12.9-4.3-18.2-8.4
			c-26-20.1-21-62.2,9.2-75.6c4-1.6,14.5-4.2,21.6-4.1c18.1-1.2,35.3-10.6,46.4-25.1c5.9-7.7,9.7-16.6,11.5-26.2
			c1.9-10.1,1-20.1,5.2-29.7C520.7,135.6,575.2,138.7,587.2,176.7C593,195,581.5,158.5,587.2,176.7z"/>
	</g>
	<g>
		<path class="st8" d="M421.9,13.8c-30.2-9.8-61.4,15.9-57.7,47.5c-2.8,32.2-30.7,57.7-63,58.2c-33.2,0.6-62-26.8-64.2-59.6
			c3-28.5-23-53.2-51.3-48.4c-28.8,4.9-45.2,36.3-32.8,62.8c6.5,13.9,20,23.1,35.1,25c9.5,1.2,18.2,1,27.3,4.5
			c7,2.7,13.4,6.6,19,11.6c10.5,9.3,17.9,22.1,20.5,35.9c1.3,6.6,0.1,13.2,1.5,19.7c1.3,6.6,4.2,12.9,8.3,18.3
			c19.9,26.2,62.1,21.5,75.6-8.6c1.6-4,4.3-14.5,4.3-21.5c1.4-18.1,10.9-35.3,25.4-46.2c7.8-5.8,16.7-9.6,26.3-11.3
			c10.1-1.8,20.1-0.8,29.7-5C462.5,80.7,459.8,26.1,421.9,13.8C403.7,7.9,440,19.7,421.9,13.8z"/>
	</g>
</g>
</svg>
